<?xml version="1.0" encoding="UTF-8"?><svg id="Capa_2" xmlns="http://www.w3.org/2000/svg" viewBox="0 0 38 38"><defs><style>.cls-1{fill:#343434;}.cls-2{fill:#d9d1d1;}</style></defs><g id="Capa_1-2"><path class="cls-1" d="M19,38h0C8.51,38,0,29.49,0,19h0C0,8.51,8.51,0,19,0h0c10.49,0,19,8.51,19,19h0c0,10.49-8.51,19-19,19Z"/><path class="cls-2" d="M16.16,25.3c.58-.12,1.08-.34,1.5-.67.38-.28.69-.63.94-1.05.39-.63.59-1.33.59-2.12s-.17-1.41-.52-1.95c-.35-.54-.86-.93-1.54-1.17.45-.23.79-.48,1.02-.76.41-.49.62-1.15.62-1.96s-.2-1.47-.61-2.03c-.68-.92-1.83-1.39-3.45-1.42h-6.43v13.3h6c.68,0,1.3-.06,1.88-.18ZM10.94,14.49h2.89c.64,0,1.16.07,1.57.21.48.2.72.61.72,1.23,0,.56-.18.95-.54,1.17-.36.22-.83.33-1.41.33h-3.23v-2.93ZM10.94,23.17v-3.55h3.27c.57,0,1.01.08,1.33.23.56.26.85.73.85,1.43,0,.82-.29,1.37-.87,1.66-.32.16-.77.23-1.35.23h-3.23Z"/><path class="cls-2" d="M21.45,24.61c1,.81,2.16,1.21,3.46,1.21,1.59,0,2.82-.48,3.7-1.44.57-.6.89-1.2.95-1.78h-2.63c-.15.29-.33.51-.53.68-.37.3-.84.45-1.43.45-.55,0-1.03-.12-1.42-.37-.65-.4-.99-1.09-1.03-2.08h7.17c.01-.85-.02-1.5-.08-1.95-.12-.77-.38-1.45-.78-2.03-.45-.66-1.01-1.15-1.7-1.46-.69-.31-1.46-.46-2.31-.46-1.44,0-2.61.45-3.52,1.36-.9.91-1.36,2.22-1.36,3.92,0,1.82.5,3.13,1.5,3.94ZM23.29,18.07c.36-.37.88-.56,1.54-.56.61,0,1.12.18,1.53.53.41.35.64.87.69,1.55h-4.43c.09-.64.32-1.15.69-1.52Z"/><rect class="cls-2" x="21.77" y="12.95" width="5.78" height="1.34"/></g></svg>